<?xml version="1.0"?>
<svg width="900" height="850" xmlns="http://www.w3.org/2000/svg" xmlns:svg="http://www.w3.org/2000/svg" xmlns:se="http://svg-edit.googlecode.com" data-name="Layer 1">
 <title>coffee break</title>
 <g class="layer">
  <title>Layer 1</title>
  <path d="m2910.7486,1507.37698c-63.88851,-0.33536 -121.30936,31.51417 -160.7479,82.25532c-39.43853,-50.74121 -96.85936,-82.59066 -160.7479,-82.25532c-119.96968,0.62973 -215.58271,113.46767 -213.20954,251.46937c2.30163,133.84311 97.3248,241.52799 214.20863,241.52799q6.80228,0 13.50154,-0.48168a2338.65822,2671.91768 0 0 1 292.49454,0q6.69721,0.47926 13.50154,0.48168c116.88387,0 211.90697,-107.68486 214.20863,-241.52791c2.37317,-138.00173 -93.23983,-250.83971 -213.20954,-251.46946l0,0.00001z" fill="#bfbfbf" id="svg_1"/>
  <ellipse cx="392.84443" cy="408.11838" fill="#57b894" id="svg_15" rx="17.5" ry="8.5" transform="translate(-275.79 395.938) rotate(-48.0596 117.054 804.056)"/>
  <ellipse cx="124.47708" cy="891.78899" fill="#57b894" id="svg_16" rx="17.5" ry="8.5" transform="rotate(-48.0596 -176.188 1327.62)"/>
  <path d="m1160.4807,3310.95996l-2.75,20.17l-17,124.46l-27.84,203.82l-6.97,51.03a16.25533,16.25533 0 0 1 -16.11,14.06l-185.65,0a16.26025,16.26025 0 0 1 -16.11,-14.02l-7.09,-51.07l-28.31,-203.82l-17.3,-124.55l-2.78,-20.04a16.25518,16.25518 0 0 1 16.1,-18.5l295.7,0a16.2658,16.2658 0 0 1 16.11,18.46z" fill="#ff5656" id="svg_20"/>
  <circle cx="-487.4993" cy="-757" fill="#2f2e41" id="svg_23" r="44"/>
  <ellipse cx="874.99999" cy="11274.99983" fill="#2f2e41" id="svg_57" rx="629.99999" ry="40"/>
  <path d="m406.5,45.5l-1.5,18.5c24.66667,19.33333 49.33333,38.66667 74,58l0,73l16,1l2,-80l-90.5,-70.5z" fill="#dc3545" id="svg_30"/>
  <g id="svg_54">
   <ellipse cx="770.19144" cy="392.64489" fill="#57b894" id="svg_11" rx="8.5" ry="17.5" transform="rotate(-63.6154 -48 18) translate(16.4739 909.491)"/>
   <ellipse cx="406.76719" cy="524.77725" fill="#57b894" id="svg_18" rx="17.5" ry="8.5" transform="rotate(-48.0596 78.1267 999.495) translate(-328.64 474.718)"/>
   <ellipse cx="383.3747" cy="550.81168" fill="#57b894" id="svg_19" rx="17.5" ry="8.5" transform="rotate(-48.0596 27.6108 1016.76) translate(-355.764 465.952)"/>
   <path d="m600.56768,681.50003l-220.725,0a8.32419,21.69863 0 0 1 -8.22128,-18.29703l-23.84598,-391.60275a8.3242,21.69867 0 0 1 8.22129,-25.10027l270.00668,0a8.3242,21.69867 0 0 1 8.2074,25.32094l-25.43571,391.60275a8.3242,21.69867 0 0 1 -8.20739,18.07636l-0.00001,0z" fill="#dc3545" id="svg_21"/>
   <circle cx="567.5007" cy="361" fill="#2f2e41" id="svg_24" r="44"/>
   <circle cx="408.50003" cy="359.5" fill="#2f2e41" id="svg_22" r="44"/>
   <circle cx="409.5007" cy="361" fill="#fff" id="svg_25" r="12"/>
   <circle cx="427.5007" cy="338" fill="#fff" id="svg_26" r="5"/>
   <circle cx="567.5007" cy="361" fill="#fff" id="svg_27" r="12"/>
   <circle cx="585.5007" cy="338" fill="#fff" id="svg_28" r="5"/>
   <path d="m602.47933,566.00001l-230.73504,0a8.7017,6.53453 0 0 1 -8.59412,-5.51014l-24.92741,-117.93093a8.70171,6.53454 0 0 1 8.59413,-7.55893l282.25167,0a8.70171,6.53454 0 0 1 8.57962,7.62538l-26.58924,117.93094a8.70171,6.53454 0 0 1 -8.5796,5.44368l-0.00001,0z" fill="#2f2e41" id="svg_31"/>
   <path d="m584.08955,488.72095a6.66219,6.66219 0 0 1 3.65312,11.12c-15.86094,16.90694 -54.3184,52.159 -99.242,52.159s-83.381,-35.25209 -99.242,-52.159a6.66219,6.66219 0 0 1 3.65312,-11.12a528.227,528.227 0 0 1 191.1777,0l0.00006,0z" fill="#ff5656" id="svg_32"/>
   <path d="m538.49889,499.26402a6.663,6.663 0 0 1 3.62123,11.33167c-10.741,10.47261 -30.73195,26.26412 -53.61942,26.26412s-42.87837,-15.79151 -53.61942,-26.26412a6.663,6.663 0 0 1 3.62123,-11.33167a305.15552,305.15552 0 0 1 99.99638,0z" fill="#fff" id="svg_33"/>
   <ellipse cx="491.5" cy="247.00001" fill="#dc3545" id="svg_29" rx="143.00001" ry="60.5"/>
  </g>
 </g>
</svg>