<svg width="640" height="480" xmlns="http://www.w3.org/2000/svg" xmlns:svg="http://www.w3.org/2000/svg">
 <!-- Created with SVG-edit - https://github.com/SVG-Edit/svgedit-->
 <g class="layer">
  <title>Layer 1</title>
  <path d="m146.33562,80.87052c1.06835,-4.12632 1.16125,-10.89256 0.21677,-15.04211l-3.12764,-13.71054c-0.94449,-4.14955 -5.14823,-8.14426 -9.34422,-8.87198l-28.82232,-4.97791c-4.196,-0.72772 -11.06288,-0.70449 -15.25114,0.05419l-31.22225,5.62047c-4.196,0.75869 -11.06288,0.8361 -15.27436,0.17806l-30.54872,-4.76114c0.03871,0.14709 0.10838,0.2787 0.13935,0.42579l20.91031,99.33367l9.56873,1.65672c4.196,0.72772 11.05514,0.69675 15.25114,-0.05419l31.21451,-5.62821c4.18826,-0.75094 11.06288,-0.82836 15.27436,-0.17032l33.51379,5.22564c4.21148,0.65804 7.01397,-2.22961 6.24755,-6.41786l-3.75472,-20.32194c-0.77417,-4.18826 -0.53418,-10.98546 0.52644,-15.11179l4.48244,-17.42655l-0.00002,0zm-149.97982,-45.45922c-4.18826,0.88255 -6.86688,4.97791 -5.98433,9.15842l44.61538,211.95208l15.81628,0l-45.27342,-215.12617c-0.89804,-4.196 -4.99339,-6.87462 -9.17391,-5.98433z" fill="#007fff" id="svg_3" stroke="#000000" stroke-width="5" transform="rotate(11.4485 68.7033 145.881)"/>
  <g id="svg_21" transform="rotate(151.798 99.0731 95.4063)">
   <rect fill="#ffff00" height="9.0078" id="svg_17" stroke="#000000" stroke-width="2" transform="matrix(0.321578 -0.00142021 0.00153132 0.298244 134.457 150.575)" width="408.26923" x="-313.02836" y="-159.16299"/>
   <rect fill="#ff0000" height="15.21062" id="svg_18" stroke="#000000" stroke-width="2" width="131.20539" x="33.43857" y="87.60344"/>
   <rect fill="#ffff00" height="8.43677" id="svg_19" stroke="#000000" stroke-width="2" transform="matrix(-0.321582 0.0000640985 -0.0000691134 -0.298248 311.546 320.53)" width="406.87317" x="458.22254" y="782.79661"/>
  </g>
  <polygon fill="#ffff00" id="svg_22" points="59,43.279083251953125 64.37060546875,57.39371109008789 80.72454833984375,57.69816970825195 67.6898193359375,66.72594833374023 72.426513671875,81.02874755859375 59,72.49357223510742 45.573486328125,81.02874755859375 50.3101806640625,66.72594833374023 37.27545166015625,57.69816970825195 53.62939453125,57.39371109008789 59,43.279083251953125 64.37060546875,57.39371109008789 " stroke="#000000" stroke-width="5"/>
  <polygon fill="#6c63ff" id="svg_1" points="496.326 126.028 496.3 126.202 496.229 126.705 488.902 179.283 444.038 195.744 443.335 195.408 418.217 183.479 405.229 133.645 404.339 130.224 404.61 130.12 460.176 109.244 496.293 126.008 496.326 126.028"/>
  <polygon fill="#6c63ff" id="svg_2" points="443.335 195.408 418.217 183.479 404.339 130.224 404.61 130.12 440.811 145.393 443.335 195.408"/>
  <polygon id="svg_4" opacity="0.2" points="443.965 194.8 424.859 158.186 427.313 147.806 415.756 134.197 414.772 135.033 425.906 148.144 417.589 183.33 418.846 183.628 424.405 160.107 442.82 195.397 443.965 194.8"/>
  <polygon fill="#3f3d56" id="svg_5" points="496.326 126.673 496.229 126.705 440.811 146.039 405.229 133.645 404.339 130.224 404.61 130.12 460.176 109.244 496.293 126.008 496.3 126.202 496.326 126.673"/>
  <polygon fill="#6c63ff" id="svg_6" points="441.779 147.007 430.482 138.293 433.064 128.61 465.34 116.99 487.288 118.281 496.003 125.705 496.648 127.641 441.779 147.007"/>
  <polygon fill="#6c63ff" id="svg_7" points="404.984 130.224 430.482 129.255 444.295 124.567 465.831 116.99 469.859 111.181 459.809 109.382 404.984 130.224"/>
  <rect fill="#ccc" height="1.29074" id="svg_8" transform="translate(-175.86286 5.76571) rotate(-19.33759)" width="14.08994" x="544.15024" y="316.79485"/>
  <polygon fill="#9f616a" id="svg_9" points="280.668 44.344 274.435 75.507 303.521 97.322 317.026 56.809 280.668 44.344"/>
  <circle cx="304.04072" cy="44.86323" fill="#9f616a" id="svg_10" r="28.04729"/>
  <path d="m345.11563,452.03529c0.12826,9.04888 39.539,109.75747 34.067,122.871c-8.62565,8.81723 -27.17952,55.74726 -35.10643,68.26672c-1.03814,-0.00064 -6.23209,15.58119 -6.23209,15.58119s12.46547,19.737 25.96972,11.42667c16.98028,-39.937 59.50573,-62.21128 60.25713,-114.26323c2.05257,16.44306 8.11167,121.98865 8.11167,121.98865s-1.16216,0.49347 25,3c4.06168,-61.25756 20.66016,-165.47535 -16.49993,-230.94948c-11.42519,-5.19304 -95.56707,2.07848 -95.56707,2.07848z" fill="#2f2e41" id="svg_11" transform="translate(-101.84405 -194.66221)"/>
  <path d="m432.18088,675.8519c-1.21444,2.33546 -9.9238,23.89289 -1.99825,26.05441c9.14,2.49272 18,-1 18,-1s16,5 25.79186,-1.35462c4.57,-4.57 3.53136,-8.72453 1.35022,-11.73657a12.72274,12.72274 0 0 0 -9.43858,-5.08761c-4.969,-0.3543 -6.547,-1.27527 -7.1162,-3.552c-0.83093,-3.32361 -26.58905,-3.32361 -26.58905,-3.32361z" fill="#2f2e41" id="svg_12" transform="translate(-101.84405 -194.66221)"/>
  <path d="m346.70784,657.027s-22.32655,7.05049 -17.62622,15.276a30.91256,30.91256 0 0 0 12.83814,11.83857s4.65644,19.19621 17.58234,19.19621c6.463,0 8.66622,-3.67213 9.25376,-7.34426a12.72274,12.72274 0 0 0 -3.0766,-10.27157c-3.26308,-3.76413 -3.72769,-5.53119 -2.52028,-7.54354c1.76262,-2.93769 -16.45114,-21.15141 -16.45114,-21.15141z" fill="#2f2e41" id="svg_13" transform="translate(-101.84405 -194.66221)"/>
  <path d="m445.88264,455.07629s-4.16,8.31 -20.78,5.19c-16.62,-3.11 -82.06,0 -82.06,0s3.63,-74.27 -4.68,-118.94s24.41,-70.12 24.41,-70.12l10.39,-10.39c10.39,-1.03 32.33,31.21 32.33,31.21c7.22,1.21 13.96,31.9 19.71,60.94c0.34,1.66 0.66,3.3 0.98,4.94c2.65,13.54 6.34,28.61 8.55,42.14c0.16,0.96 0.31,1.91 0.45,2.86a494.56274,494.56274 0 0 0 10.7,52.17z" fill="#e6e6e6" id="svg_14" transform="translate(-101.84405 -194.66221)"/>
  <path d="m373.07308,222.0615s-5.24388,-11.53654 8.39022,-16.78043c0,0 11.53654,-18.878 34.60961,-6.29265c0,0 15.73165,6.29265 15.73165,23.07308s5.24388,19.92675 5.24388,19.92675s-7.80905,-8.01137 -9.9066,-14.304s-18.41036,-7.72028 -24.703,-1.42762s-22.0243,5.24388 -22.0243,5.24388l1.04878,23.07308s-5.24389,-13.63409 -7.34144,-13.63409s-4.19512,-18.878 -1.0488,-18.878z" fill="#2f2e41" id="svg_15" transform="translate(-101.84405 -194.66221)"/>
  <path d="m434.73262,400.04632c-24.78,-13.47 -64.92,-43.01 -77.87,-58.99c-17.07,-21.05 1.55,-37.05 1.55,-37.05c21.11,-13.32 46.35,32.38 46.35,32.38l20.44,16.58c0.34,1.66 0.66,3.3 0.98,4.94c2.65003,13.53997 6.34003,28.60997 8.55,42.14z" id="svg_16" opacity="0.2" transform="translate(-101.84405 -194.66221)"/>
  <path d="m508.70616,384.52358s36.84,14.95552 42.90343,-1.85648s-29.08578,-16.52347 -29.08578,-16.52347l-13.799,1.95527l-0.01865,16.42468z" fill="#9f616a" id="svg_20" transform="translate(-101.84405 -194.66221)"/>
  <path d="m350.69062,300.165s-18.611,16.00934 -1.5532,37.05235s95.451,66.00443 95.451,66.00443l51.06366,-13.80439l14.45073,2.64438l2.7245,-27.13051l-21.28877,2.07816l-54.0413,-11.50672l-34.46008,-27.96117s-31.24209,-40.68937 -52.34654,-27.37653z" fill="#e6e6e6" id="svg_23" transform="translate(-101.844 -194.662)"/>
  <polygon id="svg_24" opacity="0.2" points="319.646 295.362 322.902 371.443 314.646 295.362 319.646 295.362"/>
  <path d="m671.18152,240.93865l-29.55817,6.84884a9.01736,9.01736 0 0 1 -10.75861,-6.5l0,0a9.01736,9.01736 0 0 1 8.5135,-11.29956l28.55117,-0.664l3.25211,11.61472z" fill="#ffb9b9" id="svg_25"/>
  <path d="m668.04338,245.27644l-6.56466,-19.694l39.35536,-13.44266l-10.44527,-91.98576l0,0c18.80625,3.41932 27.75663,18.2077 26.91826,37.30387l5.09144,62.76855l-54.35513,25.05z" fill="#3f3d56" id="svg_26"/>
  <path d="m695.23511,99.87367l64.2979,0l0,-31.97551a32.80042,32.80042 0 0 0 -9.417,-23.08849a31.69094,31.69094 0 0 0 -22.73419,-9.56558a32.19878,32.19878 0 0 0 -32.13694,31.8c-0.0049,0.29283 -0.0098,0.571 -0.0098,0.85411l0.00003,31.97547z" fill="#2f2e41" id="svg_27"/>
  <path d="m786.41795,475.63014l-20.55361,-2.35863l-24.59696,-166.11348l-50.87857,166.78737l-22.23831,0.67389l25.27081,-205.199l-3.70636,-46.83524l63.00855,-19.87972c44.62692,31.15305 43.70333,141.18781 33.69445,272.92481z" fill="#2f2e41" id="svg_28"/>
  <circle cx="721.72463" cy="69.27546" fill="#ffb9b9" id="svg_29" r="24.25998"/>
  <path d="m745.9846,113.07819l-41.10719,10.78222c6.926,-13.31911 9.14216,-25.75254 5.39111,-37.06386l28.9772,-4.71722a42.27757,42.27757 0 0 0 6.73888,30.99886z" fill="#ffb9b9" id="svg_30"/>
  <path d="m759.79931,211.80283c-23.056,14.66271 -49.91355,31.50708 -69.74744,15.16249l-9.43444,-45.82441c-7.49852,-6.67883 -4.17326,-27.28819 5.96362,-56.66433a12.99436,12.99436 0 0 1 8.05522,-8.04647l15.63225,-5.37358c6.928,5.82606 18.28449,2.35122 31.67275,-5.39111l15.49943,4.04333l6.73889,50.54163c-9.72779,14.57476 -8.02864,33.98147 -4.38028,51.55245z" fill="#3f3d56" id="svg_31"/>
  <path d="m740.59202,231.50421l-29.55817,6.84885a9.01739,9.01739 0 0 1 -10.75862,-6.5l0,0a9.01737,9.01737 0 0 1 8.5135,-11.29957l28.55117,-0.664l3.25212,11.61472z" fill="#ffb9b9" id="svg_32"/>
  <path d="m782.84546,507.38872c-3.452,1.57547 -6.34351,-8.18888 -9.25533,-5.32739c-8.14475,8.004 -27.68348,6.20984 -27.68348,6.20984a5.09135,5.09135 0 0 1 -3.20912,-6.63478l0,0a5.09135,5.09135 0 0 1 3.53235,-3.15164l8.66194,-2.16549l13.60049,-23.9181l14.82213,-1.87593l0.37437,0.61224a38.21709,38.21709 0 0 1 4.09544,31.25c-1.23265,3.94952 -2.91049,4.07555 -4.93879,5.00125z" fill="#2f2e41" id="svg_33"/>
  <path d="m685.13165,507.38872c-3.452,1.57547 -6.34351,-8.18888 -9.25532,-5.32739c-8.14476,8.004 -27.68349,6.20984 -27.68349,6.20984a5.09135,5.09135 0 0 1 -3.20912,-6.63478l0,0a5.09135,5.09135 0 0 1 3.53235,-3.15164l8.66194,-2.16549l13.60049,-23.9181l14.82213,-1.87593l0.37437,0.61224a38.21709,38.21709 0 0 1 4.09544,31.25c-1.23265,3.94952 -2.91049,4.07555 -4.93879,5.00125z" fill="#2f2e41" id="svg_34"/>
  <path d="m750.16488,49.04056l-6.11,19.4396l-52.82626,-0.93884a32.65551,32.65551 0 0 1 58.93629,-18.50076l-0.00003,0z" fill="#2f2e41" id="svg_35"/>
  <path d="m737.45388,235.84201l-6.56466,-19.694l39.35536,-13.44268l-14.88708,-93.97905l0,0a38.23684,38.23684 0 0 1 31.36,39.29716l5.09144,62.76854l-54.35506,25.05003z" fill="#3f3d56" id="svg_36"/>
  <polygon fill="#ccc" id="svg_37" points="643.455 182.748 602.522 191.551 594.159 151.278 609.564 130.591 623.428 127.95 638.833 143.575 643.455 182.748"/>
  <polygon fill="#e6e6e6" id="svg_38" points="624.529 184.504 599.879 184.504 596.519 167.914 592.839 149.734 598.339 141.814 608.909 145.114 620.349 160.964 623.219 177.114 623.419 178.264 624.529 184.504"/>
  <polygon fill="#ccc" id="svg_39" points="665.902 174.825 637.513 178.126 642.575 142.035 654.018 131.691 663.921 134.112 670.524 149.297 665.902 174.825"/>
  <polygon fill="#e6e6e6" id="svg_40" points="669.639 153.474 666.999 168.004 658.419 217.514 625.409 228.084 624.269 227.464 606.479 217.734 596.469 167.894 596.519 167.914 622.989 178.564 623.219 177.114 623.379 176.064 625.409 163.164 634.429 153.474 664.579 146.214 669.639 153.474"/>
  <circle cx="648.73654" cy="144.89555" fill="#e6e6e6" id="svg_41" r="7.04226"/>
  <rect fill="#fff" height="0.44008" id="svg_42" transform="rotate(-10.0971 -151.067 -62.1685)" width="16.31791" x="566.04615" y="282.45094"/>
  <polygon fill="#f2f2f2" id="svg_43" points="624.269 227.464 606.479 217.734 596.469 167.894 596.519 167.914 592.839 149.734 598.339 141.814 608.909 145.114 620.349 160.964 623.219 177.114 623.379 176.064 623.419 178.264 623.529 184.504 624.269 227.464"/>
  <polygon fill="#ccc" id="svg_44" points="606.696 217.796 606.27 217.682 615.045 184.776 604.997 171.529 605.348 171.263 615.526 184.681 606.696 217.796"/>
  <rect fill="#ccc" height="32.16289" id="svg_45" transform="rotate(-25.7187 -207.654 158.347)" width="0.44005" x="512.40007" y="550.52155"/>
  <path d="m667.90701,164.98841l-1.65273,9.13074l-0.08363,0.00879l-7.39877,42.68492l-33.01061,10.56339l-0.19806,0.09463l-0.132,-0.27509l-18.596,-10.16286l-0.21347,-0.05722l0.11443,-0.43134l-9.91422,-49.35745l0.05061,0.0198l-1.09815,-5.41814l0.82086,-1.18178l2.53742,-3.65317l10.56339,3.30106l11.44371,15.84509l0.16726,0.9419l1.20157,6.76058l0.482,2.71566l1.01893,5.73725l0.96831,-6.16419l0.34772,-2.2183l0.87588,-5.57219l9.02289,-9.68311l4.01189,-0.96612l2.7927,-0.67341l3.84244,-0.9243a7.04235,7.04235 0 1 1 9.6545,-2.32615l9.84816,-2.37235l2.42738,3.4837l0.10559,0.14966z" id="svg_46" opacity="0.2"/>
  <polygon fill="#e6e6e6" id="svg_47" points="625.321 201.848 600.673 201.848 593.631 167.077 599.133 159.154 609.696 162.455 621.14 178.3 625.321 201.848"/>
  <polygon fill="#e6e6e6" id="svg_48" points="659.212 234.859 626.201 245.422 607.275 235.079 597.262 185.233 623.781 195.906 626.201 180.501 635.224 170.818 665.374 163.556 670.436 170.818 667.795 185.343 659.212 234.859"/>
  <circle cx="649.52891" cy="162.23533" fill="#e6e6e6" id="svg_49" r="7.04226"/>
  <polygon fill="#f2f2f2" id="svg_50" points="625.079 244.464 607.289 234.734 597.279 184.894 597.329 184.914 593.649 166.734 599.149 158.814 609.719 162.114 621.159 177.964 624.029 194.114 624.189 193.064 624.229 195.264 624.339 201.504 625.079 244.464"/>
  <polygon fill="#ccc" id="svg_51" points="607.488 235.135 607.063 235.022 615.838 202.115 605.789 188.868 606.14 188.602 616.319 202.021 607.488 235.135"/>
  <rect fill="#ccc" height="32.16289" id="svg_52" transform="rotate(-25.7187 -215.101 160.408)" width="0.44005" x="505.74629" y="569.92297"/>
  <polygon fill="#ccc" id="svg_53" points="901.455 465.094 860.522 473.897 852.159 433.624 867.564 412.937 881.428 410.296 896.833 425.921 901.455 465.094"/>
  <polygon fill="#e6e6e6" id="svg_54" points="882.529 466.85 857.879 466.85 854.519 450.26 850.839 432.08 856.339 424.16 866.909 427.46 878.349 443.31 881.219 459.46 881.419 460.61 882.529 466.85"/>
  <polygon fill="#ccc" id="svg_55" points="923.902 457.171 895.513 460.473 900.575 424.381 912.018 414.038 921.921 416.458 928.524 431.643 923.902 457.171"/>
  <polygon fill="#e6e6e6" id="svg_56" points="927.639 435.82 924.999 450.35 916.419 499.86 883.409 510.43 882.269 509.81 864.479 500.08 854.469 450.24 854.519 450.26 880.989 460.91 881.219 459.46 881.379 458.41 883.409 445.51 892.429 435.82 922.579 428.56 927.639 435.82"/>
  <circle cx="906.73654" cy="427.24186" fill="#e6e6e6" id="svg_57" r="7.04226"/>
  <rect fill="#fff" height="0.44008" id="svg_58" transform="translate(-196.57165 -12.56361) rotate(-10.09713)" width="16.31791" x="975.1135" y="626.96573"/>
  <polygon fill="#f2f2f2" id="svg_59" points="882.269 509.81 864.479 500.08 854.469 450.24 854.519 450.26 850.839 432.08 856.339 424.16 866.909 427.46 878.349 443.31 881.219 459.46 881.379 458.41 881.419 460.61 881.529 466.85 882.269 509.81"/>
  <polygon fill="#ccc" id="svg_60" points="864.696 500.142 864.27 500.029 873.045 467.122 862.997 453.875 863.348 453.609 873.526 467.027 864.696 500.142"/>
  <rect fill="#ccc" height="32.16289" id="svg_61" transform="translate(-304.62081 298.27729) rotate(-25.7187)" width="0.44005" x="978.05447" y="674.521"/>
  <polygon fill="#e6e6e6" id="svg_62" points="982.339 506.59 955.339 506.59 951.339 454.59 986.339 454.59 982.339 506.59"/>
  <rect fill="#f2f2f2" height="8" id="svg_63" width="36" x="950.83858" y="475.5904"/>
  <polygon fill="#ccc" id="svg_64" points="996.089 458.323 990.333 456.628 990.259 454.521 964.679 446.986 963.474 448.716 957.719 447.021 954.105 452.211 996.312 464.644 996.089 458.323"/>
  <polygon fill="#6c63ff" id="svg_65" points="149.326 440.959 149.3 441.133 149.229 441.637 141.902 494.215 97.038 510.676 96.335 510.34 71.217 498.411 58.229 448.576 57.339 445.155 57.61 445.052 113.176 424.176 149.293 440.94 149.326 440.959"/>
  <polygon fill="#6c63ff" id="svg_66" points="96.335 510.34 71.217 498.411 57.339 445.155 57.61 445.052 93.811 460.325 96.335 510.34"/>
  <polygon id="svg_67" opacity="0.2" points="96.965 509.731 77.859 473.117 80.313 462.738 68.756 449.128 67.772 449.964 78.906 463.076 70.589 498.262 71.846 498.559 77.405 475.039 95.82 510.329 96.965 509.731"/>
  <polygon fill="#3f3d56" id="svg_68" points="149.326 441.605 149.229 441.637 93.811 460.97 58.229 448.576 57.339 445.155 57.61 445.052 113.176 424.176 149.293 440.94 149.3 441.133 149.326 441.605"/>
  <polygon fill="#6c63ff" id="svg_69" points="94.779 461.939 83.482 453.224 86.064 443.541 118.34 431.922 140.288 433.213 149.003 440.636 149.648 442.573 94.779 461.939"/>
  <polygon fill="#6c63ff" id="svg_70" points="57.984 445.155 83.482 444.187 97.295 439.498 118.831 431.922 122.859 426.112 112.809 424.314 57.984 445.155"/>
  <rect fill="#ccc" height="1.29074" id="svg_71" transform="translate(-299.7236 -91.37041) rotate(-19.33759)" width="14.08994" x="197.15024" y="631.72632"/>
  <polygon fill="#6c63ff" id="svg_72" points="36 507.786 9 507.786 5 455.786 40 455.786 36 507.786"/>
  <rect fill="#e6e6e6" height="8" id="svg_73" width="36" x="4.5" y="476.78581"/>
  <polygon fill="#3f3d56" id="svg_74" points="42 452.786 36 452.786 35.333 450.786 8.667 450.786 8 452.786 2 452.786 0 458.786 44 458.786 42 452.786"/>
  <rect fill="#3f3d56" height="2" id="svg_75" width="606.0958" x="202.24279" y="507.1729"/>
 </g>
</svg>